<svg xmlns="http://www.w3.org/2000/svg" xmlns:xlink="http://www.w3.org/1999/xlink" contentStyleType="text/css" data-diagram-type="SEQUENCE" height="460px" preserveAspectRatio="none" style="width:1569px;height:460px;background:#FFFFFF;" version="1.1" viewBox="0 0 1569 460" width="1569px" zoomAndPan="magnify"><defs/><g><rect fill="none" height="245.9297" style="stroke:#000000;stroke-width:1.5;" width="872.333" x="125.313" y="161.8281"/><rect fill="none" height="143.5313" style="stroke:#000000;stroke-width:1.5;" width="565.0806" x="422.5654" y="185.9609"/><g><title>cli.py</title><rect fill="#000000" fill-opacity="0.00000" height="388.4609" width="8" x="26.5493" y="36.2969"/><line style="stroke:#181818;stroke-width:0.5;stroke-dasharray:5,5;" x1="30" x2="30" y1="36.2969" y2="424.7578"/></g><g><title>execute_routing.py</title><rect fill="#000000" fill-opacity="0.00000" height="388.4609" width="8" x="205.8828" y="36.2969"/><line style="stroke:#181818;stroke-width:0.5;stroke-dasharray:5,5;" x1="209.313" x2="209.313" y1="36.2969" y2="424.7578"/></g><g><title>genetic.py</title><rect fill="#000000" fill-opacity="0.00000" height="388.4609" width="8" x="472.4077" y="36.2969"/><line style="stroke:#181818;stroke-width:0.5;stroke-dasharray:5,5;" x1="475.5654" x2="475.5654" y1="36.2969" y2="424.7578"/></g><g class="participant participant-head" data-participant="cli.py"><rect fill="#E2E2F0" height="30.2969" rx="2.5" ry="2.5" style="stroke:#181818;stroke-width:0.5;" width="51.0986" x="5" y="5"/><text fill="#000000" font-family="sans-serif" font-size="14" lengthAdjust="spacing" textLength="37.0986" x="12" y="24.9951">cli.py</text></g><g class="participant participant-tail" data-participant="cli.py"><rect fill="#E2E2F0" height="30.2969" rx="2.5" ry="2.5" style="stroke:#181818;stroke-width:0.5;" width="51.0986" x="5" y="423.7578"/><text fill="#000000" font-family="sans-serif" font-size="14" lengthAdjust="spacing" textLength="37.0986" x="12" y="443.7529">cli.py</text></g><g class="participant participant-head" data-participant="execute_routing.py"><rect fill="#E2E2F0" height="30.2969" rx="2.5" ry="2.5" style="stroke:#181818;stroke-width:0.5;" width="149.1396" x="135.313" y="5"/><text fill="#000000" font-family="sans-serif" font-size="14" lengthAdjust="spacing" textLength="135.1396" x="142.313" y="24.9951">execute_routing.py</text></g><g class="participant participant-tail" data-participant="execute_routing.py"><rect fill="#E2E2F0" height="30.2969" rx="2.5" ry="2.5" style="stroke:#181818;stroke-width:0.5;" width="149.1396" x="135.313" y="423.7578"/><text fill="#000000" font-family="sans-serif" font-size="14" lengthAdjust="spacing" textLength="135.1396" x="142.313" y="443.7529">execute_routing.py</text></g><g class="participant participant-head" data-participant="genetic.py"><rect fill="#E2E2F0" height="30.2969" rx="2.5" ry="2.5" style="stroke:#181818;stroke-width:0.5;" width="87.6846" x="432.5654" y="5"/><text fill="#000000" font-family="sans-serif" font-size="14" lengthAdjust="spacing" textLength="73.6846" x="439.5654" y="24.9951">genetic.py</text></g><g class="participant participant-tail" data-participant="genetic.py"><rect fill="#E2E2F0" height="30.2969" rx="2.5" ry="2.5" style="stroke:#181818;stroke-width:0.5;" width="87.6846" x="432.5654" y="423.7578"/><text fill="#000000" font-family="sans-serif" font-size="14" lengthAdjust="spacing" textLength="73.6846" x="439.5654" y="443.7529">genetic.py</text></g><g class="message" data-participant-1="cli.py" data-participant-2="execute_routing.py"><polygon fill="#181818" points="197.8828,63.4297,207.8828,67.4297,197.8828,71.4297,201.8828,67.4297" style="stroke:#181818;stroke-width:1;"/><line style="stroke:#181818;stroke-width:1;" x1="30.5493" x2="203.8828" y1="67.4297" y2="67.4297"/><text fill="#000000" font-family="sans-serif" font-size="13" lengthAdjust="spacing" textLength="155.3335" x="37.5493" y="62.3638">execute_routing(config)</text></g><g class="message" data-participant-1="execute_routing.py" data-participant-2="genetic.py"><polygon fill="#181818" points="464.4077,107.6953,474.4077,111.6953,464.4077,115.6953,468.4077,111.6953" style="stroke:#181818;stroke-width:1;"/><line style="stroke:#181818;stroke-width:1;" x1="209.8828" x2="470.4077" y1="111.6953" y2="111.6953"/><text fill="#000000" font-family="sans-serif" font-size="13" lengthAdjust="spacing" textLength="105.4092" x="216.8828" y="91.4966">execute_routing</text><text fill="#000000" font-family="sans-serif" font-size="13" lengthAdjust="spacing" textLength="242.5249" x="216.8828" y="106.6294">(Boat, WeatherCond, ConstraintsList)</text></g><path d="M481,124.6953 L481,149.6953 L1010,149.6953 L1010,134.6953 L1000,124.6953 L481,124.6953" fill="#FEFFDD" style="stroke:#181818;stroke-width:0.5;"/><path d="M1000,124.6953 L1000,134.6953 L1010,134.6953 L1000,124.6953" fill="#FEFFDD" style="stroke:#181818;stroke-width:0.5;"/><text fill="#000000" font-family="sans-serif" font-size="13" lengthAdjust="spacing" textLength="508.625" x="487" y="141.7622">execute_routing.py invokes the execute_routing function of the Genetic class.</text><path d="M125.313,161.8281 L288.6523,161.8281 L288.6523,168.9609 L278.6523,178.9609 L125.313,178.9609 L125.313,161.8281" fill="#EEEEEE" style="stroke:#000000;stroke-width:1.5;"/><rect fill="none" height="245.9297" style="stroke:#000000;stroke-width:1.5;" width="872.333" x="125.313" y="161.8281"/><text fill="#000000" font-family="sans-serif" font-size="13" font-weight="bold" lengthAdjust="spacing" textLength="118.3394" x="140.313" y="174.895">execute_routing</text><path d="M1002.646,166.8281 L1002.646,221.8281 L1562.646,221.8281 L1562.646,176.8281 L1552.646,166.8281 L1002.646,166.8281" fill="#FEFFDD" style="stroke:#181818;stroke-width:0.5;"/><path d="M1552.646,166.8281 L1552.646,176.8281 L1562.646,176.8281 L1552.646,166.8281" fill="#FEFFDD" style="stroke:#181818;stroke-width:0.5;"/><text fill="#000000" font-family="sans-serif" font-size="13" lengthAdjust="spacing" textLength="539.2778" x="1008.646" y="183.895">genetic.py uses pymoo to implement a genetic algorithm for calculating the route.</text><text fill="#000000" font-family="sans-serif" font-size="13" lengthAdjust="spacing" textLength="430.5488" x="1008.646" y="199.0278">The funktions get_termination and minimize are pymoo functions.</text><text fill="#000000" font-family="sans-serif" font-size="13" lengthAdjust="spacing" textLength="432.2183" x="1008.646" y="214.1606">Look in the pymoo documentation for more informations on them.</text><path d="M422.5654,185.9609 L982.646,185.9609 L982.646,193.0938 L972.646,203.0938 L422.5654,203.0938 L422.5654,185.9609" fill="#EEEEEE" style="stroke:#000000;stroke-width:1.5;"/><rect fill="none" height="143.5313" style="stroke:#000000;stroke-width:1.5;" width="565.0806" x="422.5654" y="185.9609"/><text fill="#000000" font-family="sans-serif" font-size="13" font-weight="bold" lengthAdjust="spacing" textLength="515.0806" x="437.5654" y="199.0278">optimize(problem, initial_population, crossover, mutation, duplicates)</text><g class="message" data-participant-1="genetic.py" data-participant-2="genetic.py"><line style="stroke:#181818;stroke-width:1;" x1="476.4077" x2="518.4077" y1="224.2266" y2="224.2266"/><line style="stroke:#181818;stroke-width:1;" x1="518.4077" x2="518.4077" y1="224.2266" y2="237.2266"/><line style="stroke:#181818;stroke-width:1;" x1="477.4077" x2="518.4077" y1="237.2266" y2="237.2266"/><polygon fill="#181818" points="487.4077,233.2266,477.4077,237.2266,487.4077,241.2266,483.4077,237.2266" style="stroke:#181818;stroke-width:1;"/><text fill="#000000" font-family="sans-serif" font-size="13" lengthAdjust="spacing" textLength="462.2744" x="483.4077" y="219.1606">algorithm = NSGA2(initial_population, crossover, mutation, duplicates)</text></g><g class="message" data-participant-1="genetic.py" data-participant-2="genetic.py"><line style="stroke:#181818;stroke-width:1;" x1="476.4077" x2="518.4077" y1="266.3594" y2="266.3594"/><line style="stroke:#181818;stroke-width:1;" x1="518.4077" x2="518.4077" y1="266.3594" y2="279.3594"/><line style="stroke:#181818;stroke-width:1;" x1="477.4077" x2="518.4077" y1="279.3594" y2="279.3594"/><polygon fill="#181818" points="487.4077,275.3594,477.4077,279.3594,487.4077,283.3594,483.4077,279.3594" style="stroke:#181818;stroke-width:1;"/><text fill="#000000" font-family="sans-serif" font-size="13" lengthAdjust="spacing" textLength="208.7935" x="483.4077" y="261.2935">termination = get_termination()</text></g><g class="message" data-participant-1="genetic.py" data-participant-2="genetic.py"><line style="stroke:#181818;stroke-width:1;" x1="476.4077" x2="518.4077" y1="308.4922" y2="308.4922"/><line style="stroke:#181818;stroke-width:1;" x1="518.4077" x2="518.4077" y1="308.4922" y2="321.4922"/><line style="stroke:#181818;stroke-width:1;" x1="477.4077" x2="518.4077" y1="321.4922" y2="321.4922"/><polygon fill="#181818" points="487.4077,317.4922,477.4077,321.4922,487.4077,325.4922,483.4077,321.4922" style="stroke:#181818;stroke-width:1;"/><text fill="#000000" font-family="sans-serif" font-size="13" lengthAdjust="spacing" textLength="317.8081" x="483.4077" y="303.4263">res = minimize(problem, algorithm, termination)</text></g><g class="message" data-participant-1="genetic.py" data-participant-2="genetic.py"><line style="stroke:#181818;stroke-width:1;" x1="476.4077" x2="518.4077" y1="357.625" y2="357.625"/><line style="stroke:#181818;stroke-width:1;" x1="518.4077" x2="518.4077" y1="357.625" y2="370.625"/><line style="stroke:#181818;stroke-width:1;" x1="477.4077" x2="518.4077" y1="370.625" y2="370.625"/><polygon fill="#181818" points="487.4077,366.625,477.4077,370.625,487.4077,374.625,483.4077,370.625" style="stroke:#181818;stroke-width:1;"/><text fill="#000000" font-family="sans-serif" font-size="13" lengthAdjust="spacing" textLength="369.8906" x="483.4077" y="352.5591">route = terminate(result_object=res, problem=problem)</text></g><g class="message" data-participant-1="genetic.py" data-participant-2="execute_routing.py"><polygon fill="#181818" points="220.8828,395.7578,210.8828,399.7578,220.8828,403.7578,216.8828,399.7578" style="stroke:#181818;stroke-width:1;"/><line style="stroke:#181818;stroke-width:1;" x1="214.8828" x2="475.4077" y1="399.7578" y2="399.7578"/><text fill="#000000" font-family="sans-serif" font-size="13" lengthAdjust="spacing" textLength="79.0283" x="226.8828" y="394.6919">return route</text></g><!--SRC=[jP8_J-Gm4CNxV8efir9k2qgaFOcxWWRHW7JDIIlZdSqEQtiiUuo0JtzZPnUYW4uqf4ZYF-_tFEDd7QtZ2_pu2VYCjWXk4nUXCDRPo-LaRpdiQLnrdsnMn8W1XQoEFYZ_XluN6ndW3nevOFhDOJU0lhCaGq7o3MLPTO458T5u4E3zZDU1Ff-OKdZY8sPGv78PzYLO8GwLLDUl9nfOPt9UTnXsKEswKGLngMw6qmf78K-lsCV43mxzeAuaPDmsSYpEL8y1REAS-GdJ0Bx8QN9NeYDh1FEg0HlqhQXboumREP4SF6pWzkxwwgB_9YF1v2aqgLgDADlPJFyLGjAURq0bYywybJ3CJIQYDhpx3r7xZieyox1NZ-9aom-FQ6MZem5EFflJTxNWVGn8FQcK52PylVDPnBf5ZILhLV75CuCma8zgWK70d3VDRcZF2QnnjbsBXgq6h7ci6_LUXvg_Owq-BpiCHgDtxXsOX2VJSs3p6XhaXlceMMliQSUERQb7cZ3r39vLJa5_lPdCk0dyUy3_0G00]--></g></svg>