<svg xmlns="http://www.w3.org/2000/svg" xmlns:xlink="http://www.w3.org/1999/xlink" contentStyleType="text/css" data-diagram-type="SEQUENCE" height="821px" preserveAspectRatio="none" style="width:1268px;height:821px;background:#FFFFFF;" version="1.1" viewBox="0 0 1268 821" width="1268px" zoomAndPan="magnify"><defs/><g><rect fill="none" height="606.9297" style="stroke:#000000;stroke-width:1.5;" width="722.0708" x="125.313" y="161.8281"/><rect fill="none" height="504.5313" style="stroke:#000000;stroke-width:1.5;" width="483.0635" x="354.3203" y="185.9609"/><rect fill="none" height="301.0625" style="stroke:#000000;stroke-width:1.5;" width="463.0635" x="364.3203" y="252.2266"/><rect fill="none" height="59.2656" style="stroke:#000000;stroke-width:1.5;" width="241.1978" x="374.3203" y="402.7578"/><rect fill="none" height="116.2031" style="stroke:#000000;stroke-width:1.5;" width="283.4604" x="374.3203" y="567.2891"/><g><title>cli.py</title><rect fill="#000000" fill-opacity="0.00000" height="749.4609" width="8" x="26.5493" y="36.2969"/><line style="stroke:#181818;stroke-width:0.5;stroke-dasharray:5,5;" x1="30" x2="30" y1="36.2969" y2="785.7578"/></g><g><title>execute_routing.py</title><rect fill="#000000" fill-opacity="0.00000" height="749.4609" width="8" x="205.8828" y="36.2969"/><line style="stroke:#181818;stroke-width:0.5;stroke-dasharray:5,5;" x1="209.313" x2="209.313" y1="36.2969" y2="785.7578"/></g><g><title>isobased.py</title><rect fill="#000000" fill-opacity="0.00000" height="749.4609" width="8" x="429.1357" y="36.2969"/><line style="stroke:#181818;stroke-width:0.5;stroke-dasharray:5,5;" x1="432.3203" x2="432.3203" y1="36.2969" y2="785.7578"/></g><g class="participant participant-head" data-participant="cli.py"><rect fill="#E2E2F0" height="30.2969" rx="2.5" ry="2.5" style="stroke:#181818;stroke-width:0.5;" width="51.0986" x="5" y="5"/><text fill="#000000" font-family="sans-serif" font-size="14" lengthAdjust="spacing" textLength="37.0986" x="12" y="24.9951">cli.py</text></g><g class="participant participant-tail" data-participant="cli.py"><rect fill="#E2E2F0" height="30.2969" rx="2.5" ry="2.5" style="stroke:#181818;stroke-width:0.5;" width="51.0986" x="5" y="784.7578"/><text fill="#000000" font-family="sans-serif" font-size="14" lengthAdjust="spacing" textLength="37.0986" x="12" y="804.7529">cli.py</text></g><g class="participant participant-head" data-participant="execute_routing.py"><rect fill="#E2E2F0" height="30.2969" rx="2.5" ry="2.5" style="stroke:#181818;stroke-width:0.5;" width="149.1396" x="135.313" y="5"/><text fill="#000000" font-family="sans-serif" font-size="14" lengthAdjust="spacing" textLength="135.1396" x="142.313" y="24.9951">execute_routing.py</text></g><g class="participant participant-tail" data-participant="execute_routing.py"><rect fill="#E2E2F0" height="30.2969" rx="2.5" ry="2.5" style="stroke:#181818;stroke-width:0.5;" width="149.1396" x="135.313" y="784.7578"/><text fill="#000000" font-family="sans-serif" font-size="14" lengthAdjust="spacing" textLength="135.1396" x="142.313" y="804.7529">execute_routing.py</text></g><g class="participant participant-head" data-participant="isobased.py"><rect fill="#E2E2F0" height="30.2969" rx="2.5" ry="2.5" style="stroke:#181818;stroke-width:0.5;" width="97.6309" x="384.3203" y="5"/><text fill="#000000" font-family="sans-serif" font-size="14" lengthAdjust="spacing" textLength="83.6309" x="391.3203" y="24.9951">isobased.py</text></g><g class="participant participant-tail" data-participant="isobased.py"><rect fill="#E2E2F0" height="30.2969" rx="2.5" ry="2.5" style="stroke:#181818;stroke-width:0.5;" width="97.6309" x="384.3203" y="784.7578"/><text fill="#000000" font-family="sans-serif" font-size="14" lengthAdjust="spacing" textLength="83.6309" x="391.3203" y="804.7529">isobased.py</text></g><g class="message" data-participant-1="cli.py" data-participant-2="execute_routing.py"><polygon fill="#181818" points="197.8828,63.4297,207.8828,67.4297,197.8828,71.4297,201.8828,67.4297" style="stroke:#181818;stroke-width:1;"/><line style="stroke:#181818;stroke-width:1;" x1="30.5493" x2="203.8828" y1="67.4297" y2="67.4297"/><text fill="#000000" font-family="sans-serif" font-size="13" lengthAdjust="spacing" textLength="155.3335" x="37.5493" y="62.3638">execute_routing(config)</text></g><g class="message" data-participant-1="execute_routing.py" data-participant-2="isobased.py"><polygon fill="#181818" points="421.1357,107.6953,431.1357,111.6953,421.1357,115.6953,425.1357,111.6953" style="stroke:#181818;stroke-width:1;"/><line style="stroke:#181818;stroke-width:1;" x1="209.8828" x2="427.1357" y1="111.6953" y2="111.6953"/><text fill="#000000" font-family="sans-serif" font-size="13" lengthAdjust="spacing" textLength="144.5488" x="216.8828" y="91.4966">execute_routing(Boat,</text><text fill="#000000" font-family="sans-serif" font-size="13" lengthAdjust="spacing" textLength="199.2529" x="216.8828" y="106.6294">WeatherCond, ConstraintsList)</text></g><path d="M438,124.6953 L438,149.6953 L975,149.6953 L975,134.6953 L965,124.6953 L438,124.6953" fill="#FEFFDD" style="stroke:#181818;stroke-width:0.5;"/><path d="M965,124.6953 L965,134.6953 L975,134.6953 L965,124.6953" fill="#FEFFDD" style="stroke:#181818;stroke-width:0.5;"/><text fill="#000000" font-family="sans-serif" font-size="13" lengthAdjust="spacing" textLength="516.9277" x="444" y="141.7622">execute_routing.py invokes the execute_routing function of the IsoBased class.</text><path d="M125.313,161.8281 L288.6523,161.8281 L288.6523,168.9609 L278.6523,178.9609 L125.313,178.9609 L125.313,161.8281" fill="#EEEEEE" style="stroke:#000000;stroke-width:1.5;"/><rect fill="none" height="606.9297" style="stroke:#000000;stroke-width:1.5;" width="722.0708" x="125.313" y="161.8281"/><text fill="#000000" font-family="sans-serif" font-size="13" font-weight="bold" lengthAdjust="spacing" textLength="118.3394" x="140.313" y="174.895">execute_routing</text><path d="M852.3838,166.8281 L852.3838,266.8281 L1261.3838,266.8281 L1261.3838,176.8281 L1251.3838,166.8281 L852.3838,166.8281" fill="#FEFFDD" style="stroke:#181818;stroke-width:0.5;"/><path d="M1251.3838,166.8281 L1251.3838,176.8281 L1261.3838,176.8281 L1251.3838,166.8281" fill="#FEFFDD" style="stroke:#181818;stroke-width:0.5;"/><text fill="#000000" font-family="sans-serif" font-size="13" lengthAdjust="spacing" textLength="216.7407" x="858.3838" y="183.895">ncount is the maximal number of</text><text fill="#000000" font-family="sans-serif" font-size="13" lengthAdjust="spacing" textLength="251.8369" x="858.3838" y="199.0278">routing steps considered for the route.</text><text fill="#000000" font-family="sans-serif" font-size="13" lengthAdjust="spacing" textLength="388.8955" x="858.3838" y="214.1606">It is set in the config by ISOCHRONE_MAX_ROUTING_STEPS.</text><text fill="#000000" font-family="sans-serif" font-size="13" lengthAdjust="spacing" textLength="4.1323" x="858.3838" y="229.2935">&#160;</text><text fill="#000000" font-family="sans-serif" font-size="13" lengthAdjust="spacing" textLength="341.2817" x="858.3838" y="244.4263">The direct funktion belongs to the geod.py package.</text><text fill="#000000" font-family="sans-serif" font-size="13" lengthAdjust="spacing" textLength="387.3657" x="858.3838" y="259.5591">For more information on it look in teh geod documentation.</text><path d="M354.3203,185.9609 L430.9443,185.9609 L430.9443,193.0938 L420.9443,203.0938 L354.3203,203.0938 L354.3203,185.9609" fill="#EEEEEE" style="stroke:#000000;stroke-width:1.5;"/><rect fill="none" height="504.5313" style="stroke:#000000;stroke-width:1.5;" width="483.0635" x="354.3203" y="185.9609"/><text fill="#000000" font-family="sans-serif" font-size="13" font-weight="bold" lengthAdjust="spacing" textLength="31.624" x="369.3203" y="199.0278">loop</text><text fill="#000000" font-family="sans-serif" font-size="11" font-weight="bold" lengthAdjust="spacing" textLength="104.7578" x="445.9443" y="198.1714">[count &lt; ncount]</text><g class="message" data-participant-1="isobased.py" data-participant-2="isobased.py"><line style="stroke:#181818;stroke-width:1;" x1="433.1357" x2="475.1357" y1="224.2266" y2="224.2266"/><line style="stroke:#181818;stroke-width:1;" x1="475.1357" x2="475.1357" y1="224.2266" y2="237.2266"/><line style="stroke:#181818;stroke-width:1;" x1="434.1357" x2="475.1357" y1="237.2266" y2="237.2266"/><polygon fill="#181818" points="444.1357,233.2266,434.1357,237.2266,444.1357,241.2266,440.1357,237.2266" style="stroke:#181818;stroke-width:1;"/><text fill="#000000" font-family="sans-serif" font-size="13" lengthAdjust="spacing" textLength="170.2632" x="440.1357" y="219.1606">define_courses_per_step()</text></g><path d="M364.3203,252.2266 L732.5366,252.2266 L732.5366,259.3594 L722.5366,269.3594 L364.3203,269.3594 L364.3203,252.2266" fill="#EEEEEE" style="stroke:#000000;stroke-width:1.5;"/><rect fill="none" height="301.0625" style="stroke:#000000;stroke-width:1.5;" width="463.0635" x="364.3203" y="252.2266"/><text fill="#000000" font-family="sans-serif" font-size="13" font-weight="bold" lengthAdjust="spacing" textLength="323.2163" x="379.3203" y="265.2935">move_boat_direct(wt, boat, constraints_list)</text><g class="message" data-participant-1="isobased.py" data-participant-2="isobased.py"><line style="stroke:#181818;stroke-width:1;" x1="433.1357" x2="475.1357" y1="290.4922" y2="290.4922"/><line style="stroke:#181818;stroke-width:1;" x1="475.1357" x2="475.1357" y1="290.4922" y2="303.4922"/><line style="stroke:#181818;stroke-width:1;" x1="434.1357" x2="475.1357" y1="303.4922" y2="303.4922"/><polygon fill="#181818" points="444.1357,299.4922,434.1357,303.4922,444.1357,307.4922,440.1357,303.4922" style="stroke:#181818;stroke-width:1;"/><text fill="#000000" font-family="sans-serif" font-size="13" lengthAdjust="spacing" textLength="180.6162" x="440.1357" y="285.4263">bs = boat.get_boat_speed()</text></g><g class="message" data-participant-1="isobased.py" data-participant-2="isobased.py"><line style="stroke:#181818;stroke-width:1;" x1="433.1357" x2="475.1357" y1="332.625" y2="332.625"/><line style="stroke:#181818;stroke-width:1;" x1="475.1357" x2="475.1357" y1="332.625" y2="345.625"/><line style="stroke:#181818;stroke-width:1;" x1="434.1357" x2="475.1357" y1="345.625" y2="345.625"/><polygon fill="#181818" points="444.1357,341.625,434.1357,345.625,444.1357,349.625,440.1357,345.625" style="stroke:#181818;stroke-width:1;"/><text fill="#000000" font-family="sans-serif" font-size="13" lengthAdjust="spacing" textLength="281.6709" x="440.1357" y="327.5591">ship_params = boat.get_ship_parameters()</text></g><g class="message" data-participant-1="isobased.py" data-participant-2="isobased.py"><line style="stroke:#181818;stroke-width:1;" x1="433.1357" x2="475.1357" y1="374.7578" y2="374.7578"/><line style="stroke:#181818;stroke-width:1;" x1="475.1357" x2="475.1357" y1="374.7578" y2="387.7578"/><line style="stroke:#181818;stroke-width:1;" x1="434.1357" x2="475.1357" y1="387.7578" y2="387.7578"/><polygon fill="#181818" points="444.1357,383.7578,434.1357,387.7578,444.1357,391.7578,440.1357,387.7578" style="stroke:#181818;stroke-width:1;"/><text fill="#000000" font-family="sans-serif" font-size="13" lengthAdjust="spacing" textLength="366.647" x="440.1357" y="369.6919">dist = self.get_delta_variables_netCDF(ship_params, bs)</text></g><path d="M374.3203,402.7578 L563.8691,402.7578 L563.8691,409.8906 L553.8691,419.8906 L374.3203,419.8906 L374.3203,402.7578" fill="#EEEEEE" style="stroke:#000000;stroke-width:1.5;"/><rect fill="none" height="59.2656" style="stroke:#000000;stroke-width:1.5;" width="241.1978" x="374.3203" y="402.7578"/><text fill="#000000" font-family="sans-serif" font-size="13" font-weight="bold" lengthAdjust="spacing" textLength="144.5488" x="389.3203" y="415.8247">check_bearing(dist)</text><g class="message" data-participant-1="isobased.py" data-participant-2="isobased.py"><line style="stroke:#181818;stroke-width:1;" x1="433.1357" x2="475.1357" y1="441.0234" y2="441.0234"/><line style="stroke:#181818;stroke-width:1;" x1="475.1357" x2="475.1357" y1="441.0234" y2="454.0234"/><line style="stroke:#181818;stroke-width:1;" x1="434.1357" x2="475.1357" y1="454.0234" y2="454.0234"/><polygon fill="#181818" points="444.1357,450.0234,434.1357,454.0234,444.1357,458.0234,440.1357,454.0234" style="stroke:#181818;stroke-width:1;"/><text fill="#000000" font-family="sans-serif" font-size="13" lengthAdjust="spacing" textLength="163.3823" x="440.1357" y="435.9575">move = geod.direct(dist)</text></g><g class="message" data-participant-1="isobased.py" data-participant-2="isobased.py"><line style="stroke:#181818;stroke-width:1;" x1="433.1357" x2="475.1357" y1="490.1563" y2="490.1563"/><line style="stroke:#181818;stroke-width:1;" x1="475.1357" x2="475.1357" y1="490.1563" y2="503.1563"/><line style="stroke:#181818;stroke-width:1;" x1="434.1357" x2="475.1357" y1="503.1563" y2="503.1563"/><polygon fill="#181818" points="444.1357,499.1563,434.1357,503.1563,444.1357,507.1563,440.1357,503.1563" style="stroke:#181818;stroke-width:1;"/><text fill="#000000" font-family="sans-serif" font-size="13" lengthAdjust="spacing" textLength="375.248" x="440.1357" y="485.0903">is_constrained = check_constraints(move, constraint_list)</text></g><g class="message" data-participant-1="isobased.py" data-participant-2="isobased.py"><line style="stroke:#181818;stroke-width:1;" x1="433.1357" x2="475.1357" y1="532.2891" y2="532.2891"/><line style="stroke:#181818;stroke-width:1;" x1="475.1357" x2="475.1357" y1="532.2891" y2="545.2891"/><line style="stroke:#181818;stroke-width:1;" x1="434.1357" x2="475.1357" y1="545.2891" y2="545.2891"/><polygon fill="#181818" points="444.1357,541.2891,434.1357,545.2891,444.1357,549.2891,440.1357,545.2891" style="stroke:#181818;stroke-width:1;"/><text fill="#000000" font-family="sans-serif" font-size="13" lengthAdjust="spacing" textLength="284.0195" x="440.1357" y="527.2231">update_position(move, is_constrained, dist)</text></g><path d="M374.3203,567.2891 L438.7632,567.2891 L438.7632,574.4219 L428.7632,584.4219 L374.3203,584.4219 L374.3203,567.2891" fill="#EEEEEE" style="stroke:#000000;stroke-width:1.5;"/><rect fill="none" height="116.2031" style="stroke:#000000;stroke-width:1.5;" width="283.4604" x="374.3203" y="567.2891"/><text fill="#000000" font-family="sans-serif" font-size="13" font-weight="bold" lengthAdjust="spacing" textLength="19.4429" x="389.3203" y="580.356">alt</text><text fill="#000000" font-family="sans-serif" font-size="11" font-weight="bold" lengthAdjust="spacing" textLength="175.1621" x="453.7632" y="579.4995">[route_reached_destination]</text><g class="message" data-participant-1="isobased.py" data-participant-2="isobased.py"><line style="stroke:#181818;stroke-width:1;" x1="433.1357" x2="475.1357" y1="605.5547" y2="605.5547"/><line style="stroke:#181818;stroke-width:1;" x1="475.1357" x2="475.1357" y1="605.5547" y2="618.5547"/><line style="stroke:#181818;stroke-width:1;" x1="434.1357" x2="475.1357" y1="618.5547" y2="618.5547"/><polygon fill="#181818" points="444.1357,614.5547,434.1357,618.5547,444.1357,622.5547,440.1357,618.5547" style="stroke:#181818;stroke-width:1;"/><text fill="#000000" font-family="sans-serif" font-size="13" lengthAdjust="spacing" textLength="68.9927" x="440.1357" y="600.4888">break loop</text></g><line style="stroke:#000000;stroke-width:1;stroke-dasharray:2,2;" x1="374.3203" x2="657.7808" y1="627.5547" y2="627.5547"/><text fill="#000000" font-family="sans-serif" font-size="11" font-weight="bold" lengthAdjust="spacing" textLength="161.627" x="379.3203" y="637.7651">[route_reached_waypoint]</text><g class="message" data-participant-1="isobased.py" data-participant-2="isobased.py"><line style="stroke:#181818;stroke-width:1;" x1="433.1357" x2="475.1357" y1="662.4922" y2="662.4922"/><line style="stroke:#181818;stroke-width:1;" x1="475.1357" x2="475.1357" y1="662.4922" y2="675.4922"/><line style="stroke:#181818;stroke-width:1;" x1="434.1357" x2="475.1357" y1="675.4922" y2="675.4922"/><polygon fill="#181818" points="444.1357,671.4922,434.1357,675.4922,444.1357,679.4922,440.1357,675.4922" style="stroke:#181818;stroke-width:1;"/><text fill="#000000" font-family="sans-serif" font-size="13" lengthAdjust="spacing" textLength="205.645" x="440.1357" y="657.4263">continue routing from waypoint</text></g><g class="message" data-participant-1="isobased.py" data-participant-2="isobased.py"><line style="stroke:#181818;stroke-width:1;" x1="433.1357" x2="475.1357" y1="718.625" y2="718.625"/><line style="stroke:#181818;stroke-width:1;" x1="475.1357" x2="475.1357" y1="718.625" y2="731.625"/><line style="stroke:#181818;stroke-width:1;" x1="434.1357" x2="475.1357" y1="731.625" y2="731.625"/><polygon fill="#181818" points="444.1357,727.625,434.1357,731.625,444.1357,735.625,440.1357,731.625" style="stroke:#181818;stroke-width:1;"/><text fill="#000000" font-family="sans-serif" font-size="13" lengthAdjust="spacing" textLength="127.9497" x="440.1357" y="713.5591">route = terminate()</text></g><g class="message" data-participant-1="isobased.py" data-participant-2="execute_routing.py"><polygon fill="#181818" points="220.8828,756.7578,210.8828,760.7578,220.8828,764.7578,216.8828,760.7578" style="stroke:#181818;stroke-width:1;"/><line style="stroke:#181818;stroke-width:1;" x1="214.8828" x2="432.1357" y1="760.7578" y2="760.7578"/><text fill="#000000" font-family="sans-serif" font-size="13" lengthAdjust="spacing" textLength="79.0283" x="226.8828" y="755.6919">return route</text></g><!--SRC=[bLJBRjim4BphA_Oe0wu-e6WAD6xI6cZZ8dRH7WeGbBYI2KcaG59E_FTThfnObWFNrS6oICxCFePRD3hhzl3k8-0p5dr0uMmVjAdYwllfObfOK-fgbhnnc2YqjxdqgEZp77fhPPZ_CRzGXYswXJLg3lJhWvFQ1FzD-p1BZ0q8JbVR0BOSyoL0pnkgskniZHw8SxeDPM-AeAs9L75_wUrjf8EYaTvd2He5KJ2f2D5DuQpOMDj1ONiJu0CO_iFheyWcYLFH59RQeA3JpgCN7JhX0tRfZA63M6jtA78gYL3QOH7Ifp27-3qdkTUYY8Qh0eVdechkuOOPiWh3GEqxH9LUYVTRtObEEjcU41sNCQ3prx8f2fneF3ObqoXiWXGxwRJC6ogAmR3uV9-EH2bzVoGVgbHiiQX5ZWGZ1wcJObpMZ_Kb_GgjoWuLFeLJyw_BH7lnsX7opiqXg56NqYWsxjl_jAtlb2JJTTRhwDK3rwde78wnZ-EMJO3eLl8iIWfBKPazULT6fYjTGyYQRNwiJEDnGliazvtL1-__avCYfo3wWOGlehCjd76yP1BV5_au5Yey-Q-DoI6PS08udmm4mz0xCw3ZNHyF5nOUxZE9yNHevRDkPGEcRtDqSMRmePSSuWtst6Ejq94HIkiOn_mPdrqocKTw6TuRnYNaUrYkLuklZwk7E_7zqs_nkFgvMJvy4UlDtOzrbZ1uG-S7fyR1LVFWoh6nfgBuBDEncodXJXQrh30R8hodG5hha4GffbOE8y-03h6lDSU2MmQ3iaNVeWbyw3W1_m80]--></g></svg>